<svg width="35" height="31" viewBox="0 0 35 31" fill="none" xmlns="http://www.w3.org/2000/svg">
<path d="M26.25 20.7702C25.1417 20.7702 24.15 21.1577 23.3917 21.7647L12.9937 16.4043C13.0667 16.1072 13.125 15.8102 13.125 15.5002C13.125 15.1902 13.0667 14.8931 12.9937 14.596L23.275 9.28725C24.0625 9.93308 25.0979 10.3335 26.25 10.3335C28.6708 10.3335 30.625 8.60266 30.625 6.4585C30.625 4.31433 28.6708 2.5835 26.25 2.5835C23.8292 2.5835 21.875 4.31433 21.875 6.4585C21.875 6.7685 21.9333 7.06558 22.0063 7.36266L11.725 12.6714C10.9375 12.0256 9.90208 11.6252 8.75 11.6252C6.32917 11.6252 4.375 13.356 4.375 15.5002C4.375 17.6443 6.32917 19.3752 8.75 19.3752C9.90208 19.3752 10.9375 18.9747 11.725 18.3289L22.1083 23.7022C22.0354 23.9735 21.9917 24.2577 21.9917 24.5418C21.9917 26.6214 23.9021 28.3135 26.25 28.3135C28.5979 28.3135 30.5083 26.6214 30.5083 24.5418C30.5083 22.4622 28.5979 20.7702 26.25 20.7702Z" fill="#FC6E27"/>
</svg>
