<svg width="32" height="20" viewBox="0 0 32 20" fill="none" xmlns="http://www.w3.org/2000/svg">
<path d="M17.6917 3.05737C18.0918 2.80741 18.6343 2.66699 19.2 2.66699C19.7657 2.66699 20.3082 2.80741 20.7083 3.05737L30.3083 9.05737C30.7082 9.30741 30.9329 9.64649 30.9329 10C30.9329 10.3536 30.7082 10.6927 30.3083 10.9427L20.7083 16.9427C20.3059 17.1856 19.767 17.32 19.2077 17.3169C18.6483 17.3139 18.1132 17.1737 17.7177 16.9265C17.3222 16.6793 17.0978 16.3448 17.0929 15.9952C17.0881 15.6456 17.3031 15.3088 17.6917 15.0574L23.4667 11.3334H3.19998C2.63419 11.3334 2.09157 11.1929 1.69149 10.9429C1.29141 10.6928 1.06665 10.3537 1.06665 10C1.06665 9.64642 1.29141 9.30728 1.69149 9.05723C2.09157 8.80718 2.63419 8.66671 3.19998 8.66671H23.4667L17.6917 4.94271C17.2918 4.69267 17.0671 4.35359 17.0671 4.00004C17.0671 3.64649 17.2918 3.30741 17.6917 3.05737Z" fill="black"/>
</svg>
